<svg version="1.0" xmlns="http://www.w3.org/2000/svg" viewBox="0 0 120 120"><path fill="#e6e6e6" d="M0 0h120v120H0z"/><path d="M35.5 80.7c-.9.5-1.7 1-2.3 1.7v2.8h53.7v-2.7c-.7-.7-1.6-1.2-2.5-1.7-1.5-.8-3.1-1.7-4.6-2.4-1.5-.7-3.1-1.4-4.7-2-1.5-.6-3-1.2-4.4-1.8-.3-.1-.5-.4-.6-.6-.3-.8-.6-1.7-.9-2.5-.2-.7-.4-1.3-1.2-1.5-.2 0-.5-.4-.5-.6-.2-1.2-.3-2.5-.4-3.7 0-.3.1-.6.3-.8 1.1-1.2 1.7-2.6 1.9-4.2.1-.8.6-1.6.8-2.3.3-1.1.6-2.1.8-3.2.1-.4 0-.8.1-1.2.1-.6.1-1-.6-1.3-.2-.1-.3-.5-.4-.8v-5.2c0-1.1 0-2.1-.1-3.2-.2-2-1.3-3.4-2.8-4.7-2.2-1.8-4.8-2.6-7.4-3.2-1.4-.3-2.8-.5-4.3-.8-.4-.1-.8 0-1.2 0-.1.1-.1.2-.2.3.3.2.6.4.9.7.6.6.5 1-.1 1.5-1.3 1.1-2.6 2.2-3.8 3.3-1.1 1-1.5 2.3-1.5 3.7v7.5c0 .5 0 1-.6 1.2-.1.1-.3.3-.3.5.1 1.3.2 2.6.4 3.8v.2c1.2 1.7 1.3 3.7 2.1 5.6 0 .1 0 .2.1.2 1.5 1.8 1 4 1.1 6 0 .2-.2.5-.3.6-.6.3-.8.8-.9 1.4-.3.9-.5 1.8-.9 2.6-.2.3-.6.6-.9.7-4.7 1.9-9.3 3.8-13.8 6.1z" fill="#999"/></svg>